<svg xmlns="http://www.w3.org/2000/svg" width="24" height="24" viewBox="0 0 24 24" fill="none" stroke="#0ea5e9" stroke-width="2" stroke-linecap="round" stroke-linejoin="round">
  <path d="M2 4a2 2 0 0 1 2-2h14a2 2 0 0 1 2 2v10a2 2 0 0 1-2 2H2z"></path>
  <path d="M14 15v2a1 1 0 0 1-1 1H9a1 1 0 0 1-1-1v-2"></path>
  <path d="M2 6h18"></path>
  <path d="M22 10c.7 1.2.7 2.8 0 4a5.8 5.8 0 0 1-3 3.5c-1.3.6-2.7.6-4 0a5.8 5.8 0 0 1-3-3.5c-.7-1.2-.7-2.8 0-4 .6-1 1.7-1.8 3-2.2 1.3-.4 2.7-.4 4 0 1.3.4 2.4 1.2 3 2.2Z"></path>
  <circle cx="18" cy="12" r="1"></circle>
</svg>